<svg xmlns="http://www.w3.org/2000/svg" width="793.701" height="1122.52" viewBox="0 0 210 297"><style><![CDATA[.B{stroke-linecap:round}.C{stroke-width:10}]]></style><defs><linearGradient id="A" x1="106.71" y1="20.863" x2="106.71" y2="20.863"><stop offset="0" stop-color="#634d87"/></linearGradient><linearGradient id="B"><stop offset="0" stop-color="#301d4f"/></linearGradient><linearGradient id="C" x1="99.712" y1="100.788" x2="99.712" y2="100.788"><stop offset="0" stop-color="#634d87"/></linearGradient><filter  color-interpolation-filters="sRGB"><feBlend mode="multiply" in2="BackgroundImage"/></filter></defs><path d="M106.263 29.683c-6.112 0-12.223 2.173-16.906 6.52L13.6 106.538c-9.366 8.695-9.5 24.88.534 31.537 4.594 2.85 9.522 4.602 15.65 5.783-.04.592-.06 1.19-.06 1.793v64.677c0 13.468 9.946 24.31 22.3 24.31H161c12.355 0 22.3-10.843 22.3-24.31V145.65c0-.603-.02-1.2-.06-1.793 6.128-1.18 11.057-2.933 15.65-5.783 10.034-6.656 9.9-22.842.534-31.537l-75.758-70.334c-4.683-4.348-10.794-6.52-16.906-6.52-.083 0-.166.005-.25.006l-.25-.006z" fill="none" stroke="#301d4f" stroke-width="7.309" stroke-linejoin="round" paint-order="normal"/><g transform="matrix(1.098238 0 0 1.121874 -8.753984 7.194637)"><g fill="url(#C)"><circle r="6.189" cy="45.882" cx="100.494"/><circle r="6.189" cy="78.246" cx="103.565"/><circle r="6.189" cy="61.237" cx="65.484"/><circle r="6.189" cy="60.67" cx="134.749"/><circle r="6.189" cy="101.87" cx="141.458"/><circle r="6.189" cy="90.058" cx="71.532"/></g><g fill="none" stroke="#634d87" stroke-width="4"><path d="M103.565 78.246l-3.07-32.364-35 15.355 38.08 17m-8.325 34.16l8.315-34.16-32.033 11.812-6.048-28.82"/><path d="M71.532 90.058l23.718 22.348m46.208-10.536l-37.892-23.624L134.75 60.67l6.7 41.2m-40.966-55.988L134.75 60.67"/></g></g><g transform="matrix(1.189198 0 0 1.066639 -18.328965 9.854513)" fill="url(#B)" stroke="#301d4f"><ellipse cx="104.959" cy="122.942" rx="29.978" ry="26.269" stroke-width=".313"/><g class="B C"><path d="M84.456 162.2s-1.35-14.872 10.346-18.724"/><path d="M69.747 151.346s1.298-14.877 13.492-16.6"/><path d="M62.303 131.8s8.247-12.45 19.783-8.14"/></g><a><path d="M65.98 108.194s13.797-5.714 20.954 4.307" class="B C"/></a><g transform="matrix(-1 0 0 1 209.88733 -.099727)"><g class="B C"><path d="M84.456 162.2s-1.35-14.872 10.346-18.724"/><path d="M69.747 151.346s1.298-14.877 13.492-16.6"/><path d="M62.303 131.8s8.247-12.45 19.783-8.14"/></g><a><path d="M65.98 108.194s13.797-5.714 20.954 4.307" class="B C"/></a></g></g><g fill="#fff"><circle cx="115.369" cy="152.256" r="3.169"/><circle cx="97.796" cy="152.223" r="3.169"/></g><path d="M101.963 158.563s4.59 4.1 9.25 0" fill="none" stroke="#f5ffff" stroke-width="2.442" class="B"/><g transform="matrix(1.265206 0 0 1.220606 -26.585261 -11.866103)"><path d="M241.784 619.203c-7.892-.494-11.502 10.98-4.95 15.184 5.93 4.87 15.53-1.66 13.13-9.002-.862-3.592-4.55-6.207-8.182-6.182zm97.98.508c-5.445-.427-8.405 5.528-7.04 10.295.325 16.538-.597 33.22.363 49.686 2.476 6.98 11.992 4.864 13.793-3.162 1.132-7.316-2.384-15.946 1.947-22.47 2.3-4.896 11.207-6.664 11.738.375 1.287 8.53-1.22 17.61.928 25.955 3.102 6.232 14.7 3.54 13.473-3.86-1.072-10.637 2.428-22.365-2.57-32.326-4.88-9.028-18.1-9.51-25.516-3.47-1.116-6.063 2.21-13.483-1.584-18.85-1.378-1.558-3.5-2.215-5.533-2.172zm62.47 16.584c-12.93-.12-22.768 12.628-21.457 25.072-.372 12.177 9.99 23.777 22.516 22.967 11.814.794 22.058-9.487 22.463-21.1 1.837-12.053-6.2-25.53-18.955-26.756-1.513-.195-3.043-.254-4.566-.193zm97.04-.016c-8.93-.446-19.36 6.266-17.7 16.23.54 8.394 9.51 11.842 16.497 13.39 2.013 1.03 8.06 1.63 6.87 5.003-5.813 2.78-12.014-.43-16.533-4.117-6.233-2.897-11.502 6.325-6.62 10.72 7.983 7.96 21.657 8.795 31.432 3.84 9.62-5.044 8.797-21.28-1.775-24.727-4.985-2.57-11.386-2.7-15.81-6.027.325-3.47 6.342-1.998 8.727-1.24 3.41 2.09 8.063 5.62 11.803 2.055 4.584-3.932 1.415-10.997-3.713-12.6-4.064-2.02-8.685-2.608-13.178-2.53zm45.846 0c-13.015-.445-23.355 12.214-22.277 24.81-.505 12.836 11.173 24.063 23.98 23.244 7.506.045 17.866-2.84 19.574-11.205.664-6.05-8.075-9.7-11.508-4.318-5.113 4.862-15.627 3.422-17.37-4.047 8.736-.675 17.87 1.253 26.416-.746 5.647-3.41 3.285-11.9.777-16.668-3.89-7-11.52-11.52-19.592-11.07zm-260.988.236c-4.566-.18-9.415 2.725-12.492 4.62-1.404-6.51-12.297-5.397-12.076 1.38.37 12.382-.715 24.953.383 37.248 2.542 6.916 15.026 4.5 13.762-3.234 1.04-7.28-2.125-15.653 1.633-22.312 2.192-4.226 10.112-7.568 11.78-1.232 1.873 8.953-1.068 18.58 1.2 27.406 3.112 6.23 14.7 3.59 13.473-3.86-1.05-10.748 2.47-22.65-2.803-32.64-3.086-5.057-9.043-7.686-14.86-7.375zm-42.37.227c-5.47-.302-8.43 5.596-7.05 10.412.413 10.806-.73 21.804.387 32.525 2.505 7.043 15.13 4.622 13.848-3.23-.343-11.8.63-23.76-.38-35.48-.992-2.74-4-4.29-6.805-4.23zm196.885.078c-5.47-.43-8.397 5.562-7.04 10.334 1.098 10.542-3.106 23.63 4.947 32.334 6.553 7.048 18.865 5.406 25.176.07 1.356 6.562 12.378 5.352 12.107-1.43-.366-12.36.708-24.905-.38-37.18-2.498-6.957-15.038-4.54-13.766 3.205-1.04 7.27 2.093 15.603-1.553 22.29-2.24 4.906-11.48 7.486-12.146.193-1.124-8.603.98-17.613-.787-26.086-1.13-2.518-3.886-3.835-6.56-3.73zm107.55 11.55c2.866-.008 5.67 1.802 6.623 4.543-3.717-.94-14.187 1.84-13.94-1.303 1.73-2.16 4.556-3.413 7.318-3.24zm-142.436.393c8.905 1.262 9.59 13.797 5.465 19.975-4.463 6.28-14.498 1.437-13.984-5.875-.908-5.7 1.104-14.572 8.52-14.1z" transform="scale(.26458333)" fill="url(#A)"/><path d="M446.625 708.097c-5.457-.42-8.216 5.603-6.92 10.295.34 16.703-.63 33.55.395 50.18 1.77 5.5 10.718 4.412 11.932-.523 9.82 8.953 27.307 3.904 31.422-8.613 5.254-12.477.066-30.332-14.06-33.9-5.237-1.247-11.132-.816-15.687 2.242-1.247-5.852 2.858-14.368-2.89-18.605-1.242-.787-2.735-1.094-4.19-1.074zm-37.486 16.568c-13.015-.445-23.354 12.214-22.277 24.81-.505 12.836 11.173 24.063 23.98 23.244 7.506.045 17.866-2.84 19.574-11.205.663-6.05-8.074-9.71-11.508-4.318-5.107 4.868-15.635 3.413-17.367-4.047 8.736-.675 17.87 1.253 26.418-.746 5.64-3.416 3.28-11.9.773-16.668-3.89-7-11.52-11.52-19.592-11.07zm-82.42.5c-5.127-.242-9.253 5.347-6.663 10.08 4.104 11.142 6.275 23.153 11.32 33.877 4.556 6.08 15.128 2.705 15.685-4.835 1.715-3.77 3.43-16.853 5.146-14.31 3.14 6.78 1.994 16.562 8.648 21.25 5.58 3.183 12.73-.96 13.316-7.24 2.913-10.956 7.817-21.55 9.787-32.683-.388-7.036-12.132-8.54-13.746-1.336l-5.57 19.852c-2.995-7.287-2.617-16.305-7.52-22.662-4.604-4.256-13.014-1.283-13.555 5.124l-4.88 17.556c-2.964-7.382-2.883-16.263-7.39-22.914-1.2-1.21-2.9-1.787-4.576-1.758zm83.496 11.6c2.866-.008 5.67 1.803 6.623 4.543-3.717-.94-14.187 1.84-13.94-1.303a8.85 8.85 0 0 1 7.318-3.24zm52.46.625c11.264.952 11.164 22.082-.234 22.63-11.797-.536-12.32-23.067.234-22.63z" transform="matrix(.264583 0 0 .264583 -1.336348 -6.275461)" fill="url(#B)"/></g></svg>