<?xml version="1.0" encoding="utf-8"?>
<!-- Generator: Adobe Illustrator 19.0.0, SVG Export Plug-In . SVG Version: 6.00 Build 0)  -->
<svg version="1.1" id="Layer_1" xmlns="http://www.w3.org/2000/svg" xmlns:xlink="http://www.w3.org/1999/xlink" x="0px" y="0px"
	 viewBox="0 0 640 480" style="enable-background:new 0 0 640 480;" xml:space="preserve">
<g id="XMLID_1_">
	<g id="XMLID_20_">
		<path id="XMLID_24_" d="M176.1,390.4c-19.6,0-39.3,0-58.9,0c0.5,0.4,1,0.7,1.4,1.1c-7.6-40.2-15.1-80.5-22.7-120.7
			c-1.1-5.7-2.2-11.4-3.2-17.1c-0.5,0.6-1,1.3-1.4,1.9c19.6,0,39.3,0,58.9,0c-0.5-0.4-1-0.7-1.4-1.1c7.6,40.2,15.1,80.5,22.7,120.7
			c1.1,5.7,2.2,11.4,3.2,17.1c0.4,1.9,3.2,1.1,2.9-0.8c-7.6-40.2-15.1-80.5-22.7-120.7c-1.1-5.7-2.2-11.4-3.2-17.1
			c-0.1-0.6-0.8-1.1-1.4-1.1c-19.6,0-39.3,0-58.9,0c-1,0-1.6,1-1.4,1.9c7.6,40.2,15.1,80.5,22.7,120.7c1.1,5.7,2.2,11.4,3.2,17.1
			c0.1,0.6,0.8,1.1,1.4,1.1c19.6,0,39.3,0,58.9,0C178,393.4,178,390.4,176.1,390.4z"/>
	</g>
</g>
<g id="XMLID_2_">
	<g id="XMLID_14_">
		<path id="XMLID_18_" d="M171.8,252.1c-18.1,0-36.3,0-54.4,0c-8.3,0-16.6,0.1-24.9,0c-11.8-0.1-18.6-8.7-18.6-20
			c0-20.7,0-41.5,0-62.2c0-2.3-0.1-4.6,0-7c0.3-9.1,6.8-16.8,16.1-17.6c6.4-0.5,12.9,0,19.3,0c20.8,0,41.7,0,62.5,0
			c-0.5-0.5-1-1-1.5-1.5c0,32,0,64,0,96c0,4.6,0,9.2,0,13.7c0,1.9,3,1.9,3,0c0-32,0-64,0-96c0-4.6,0-9.2,0-13.7
			c0-0.8-0.7-1.5-1.5-1.5c-19.7,0-39.3,0-59,0c-7.1,0-14.3-0.2-21.4,0c-12.3,0.4-20.5,9.9-20.5,21.9c-0.2,21.5,0,43,0,64.4
			c0,10,1.7,19.9,12.1,24.6c6.5,2.9,15,1.8,22,1.8c22.3,0,44.6,0,66.9,0C173.7,255.1,173.7,252.1,171.8,252.1z"/>
	</g>
</g>
<g id="XMLID_3_">
	<g id="XMLID_27_">
		<path id="XMLID_31_" d="M380.3,302.9c-23.4-5.7-46.8-11.3-70.2-17c-37.3-9-74.7-18-112-27.1c-8.6-2.1-17.3-4.2-25.9-6.3
			c0.4,0.5,0.7,1,1.1,1.4c0-32.2,0-64.4,0-96.6c0-4.6,0-9.1,0-13.7c-0.4,0.5-0.7,1-1.1,1.4c23.5-5.2,47-10.4,70.5-15.6
			c37.3-8.2,74.5-16.5,111.8-24.7c8.6-1.9,17.2-3.8,25.9-5.7c-0.6-0.5-1.3-1-1.9-1.4c0,23.3,0,46.5,0,69.8c0,37.1,0,74.1,0,111.2
			c0,8.5,0,17,0,25.4c0,1.9,3,1.9,3,0c0-23.3,0-46.5,0-69.8c0-37.1,0-74.1,0-111.2c0-8.5,0-17,0-25.4c0-1-1-1.7-1.9-1.4
			c-23.5,5.2-47,10.4-70.5,15.6c-37.3,8.2-74.5,16.5-111.8,24.7c-8.6,1.9-17.2,3.8-25.9,5.7c-0.6,0.1-1.1,0.8-1.1,1.4
			c0,32.2,0,64.4,0,96.6c0,4.6,0,9.1,0,13.7c0,0.6,0.5,1.3,1.1,1.4c23.4,5.7,46.8,11.3,70.2,17c37.3,9,74.7,18,112,27.1
			c8.6,2.1,17.3,4.2,25.9,6.3C381.4,306.3,382.2,303.4,380.3,302.9z"/>
	</g>
</g>
<g id="XMLID_4_">
	<g id="XMLID_55_">
		<path id="XMLID_59_" d="M531.4,102.3c-35,11-70,21.9-105,32.9c-5.1,1.6-10.1,3.2-15.2,4.7c0.6,0.3,1.2,0.7,1.8,1
			c-3.4-10.8-6.8-21.7-10.2-32.5c-0.3,0.6-0.7,1.2-1,1.8c35-11,70-21.9,105-32.9c5.1-1.6,10.1-3.2,15.2-4.7c-0.6-0.3-1.2-0.7-1.8-1
			c3.4,10.8,6.8,21.7,10.2,32.5c0.6,1.8,3.5,1.1,2.9-0.8c-3.4-10.8-6.8-21.7-10.2-32.5c-0.2-0.8-1-1.3-1.8-1
			c-35,11-70,21.9-105,32.9c-5.1,1.6-10.1,3.2-15.2,4.7c-0.8,0.2-1.3,1-1,1.8c3.4,10.8,6.8,21.7,10.2,32.5c0.2,0.8,1,1.3,1.8,1
			c35-11,70-21.9,105-32.9c5.1-1.6,10.1-3.2,15.2-4.7C534.1,104.6,533.3,101.7,531.4,102.3z"/>
	</g>
</g>
<g id="XMLID_5_">
	<g id="XMLID_49_">
		<path id="XMLID_53_" d="M533.9,220.2c-33.7,0-67.5,0-101.2,0c-4.8,0-9.7,0-14.5,0c0.5,0.5,1,1,1.5,1.5c0-10.8,0-21.6,0-32.4
			c-0.5,0.5-1,1-1.5,1.5c33.7,0,67.5,0,101.2,0c4.8,0,9.7,0,14.5,0c-0.5-0.5-1-1-1.5-1.5c0,10.8,0,21.6,0,32.4c0,1.9,3,1.9,3,0
			c0-10.8,0-21.6,0-32.4c0-0.8-0.7-1.5-1.5-1.5c-33.7,0-67.5,0-101.2,0c-4.8,0-9.7,0-14.5,0c-0.8,0-1.5,0.7-1.5,1.5
			c0,10.8,0,21.6,0,32.4c0,0.8,0.7,1.5,1.5,1.5c33.7,0,67.5,0,101.2,0c4.8,0,9.7,0,14.5,0C535.9,223.2,535.9,220.2,533.9,220.2z"/>
	</g>
</g>
<g id="XMLID_6_">
	<g id="XMLID_43_">
		<path id="XMLID_47_" d="M532,333c-35.4-9.8-70.7-19.6-106.1-29.3c-5.1-1.4-10.2-2.8-15.3-4.2c0.3,0.6,0.7,1.2,1,1.8
			c3-10.9,6.1-21.9,9.1-32.8c-0.6,0.3-1.2,0.7-1.8,1c35.4,9.8,70.7,19.6,106.1,29.3c5.1,1.4,10.2,2.8,15.3,4.2
			c-0.3-0.6-0.7-1.2-1-1.8c-3,10.9-6.1,21.9-9.1,32.8c-0.5,1.9,2.4,2.7,2.9,0.8c3-10.9,6.1-21.9,9.1-32.8c0.2-0.8-0.3-1.6-1-1.8
			c-35.4-9.8-70.7-19.6-106.1-29.3c-5.1-1.4-10.2-2.8-15.3-4.2c-0.8-0.2-1.6,0.3-1.8,1c-3,10.9-6.1,21.9-9.1,32.8
			c-0.2,0.8,0.3,1.6,1,1.8c35.4,9.8,70.7,19.6,106.1,29.3c5.1,1.4,10.2,2.8,15.3,4.2C533.1,336.4,533.9,333.5,532,333z"/>
	</g>
</g>
<g id="XMLID_7_">
	<g id="XMLID_40_">
		<path id="XMLID_54_" d="M163.7,271.6c-3.6,0.7-7.1,1.4-10.7,2.2c0.6,0.3,1.2,0.7,1.8,1c-1.1-7-2.2-14.1-3.2-21.1
			c-0.5,0.6-1,1.3-1.4,1.9c8.6,0,17.3,0,25.9,0c-0.5-0.5-1-1-1.5-1.5c0,7.8-0.3,16.9-10.5,17.4c-1.9,0.1-1.9,3.1,0,3
			c5.4-0.3,10.2-3.1,12.4-8.1c1.6-3.8,1.1-8.2,1.1-12.3c0-0.8-0.7-1.5-1.5-1.5c-8.6,0-17.3,0-25.9,0c-1.1,0-1.6,1-1.4,1.9
			c1.1,7,2.2,14.1,3.2,21.1c0.1,0.8,1.1,1.2,1.8,1c3.6-0.7,7.1-1.4,10.7-2.2C166.4,274.1,165.6,271.2,163.7,271.6z"/>
	</g>
</g>
</svg>
