<?xml version="1.0" encoding="utf-8"?>
<!-- Generator: Adobe Illustrator 19.0.0, SVG Export Plug-In . SVG Version: 6.00 Build 0)  -->
<svg version="1.1" id="Layer_1" xmlns="http://www.w3.org/2000/svg" xmlns:xlink="http://www.w3.org/1999/xlink" x="0px" y="0px"
	 viewBox="0 0 640 480" style="enable-background:new 0 0 640 480;" xml:space="preserve">
<g id="XMLID_14_">
	<g id="XMLID_27_">
		<path id="XMLID_31_" d="M417.2,466.5c-44.4,0-88.8,0-133.2,0c-19.7,0-39.3,0-59,0c-26.6,0-46.1-20-46.1-46.5
			c0-38.8,0-77.7,0-116.5c0-57.9,0-115.8,0-173.6c0-19.5,0-39,0-58.6c0-4.3,0-8.5,0-12.8c0-13.2,4.9-25.5,14.8-34.4
			c15.7-14,37.3-11.1,56.7-11.1c28.2,0,56.4,0,84.6,0c24.1,0,48.2,0,72.3,0c6.3,0,12.9-0.4,19.1,0.9c20.4,4.3,34.7,22.5,35,43.2
			c0.4,32.5,0,65.1,0,97.6c0,58.7,0,117.4,0,176.1c0,22.1,0,44.2,0,66.2c0,10.3,1.1,21.4-0.5,31.7
			C457.5,450.5,438.8,466.2,417.2,466.5c-1.9,0-1.9,3,0,3c19.6-0.3,37.3-12.3,44.2-30.8c2.5-6.6,2.9-13.4,2.9-20.3
			c0-15.5,0-31,0-46.4c0-57.6,0-115.2,0-172.9c0-45,0-90,0-135c0-3,0.1-6.1-0.1-9.1c-0.9-19.2-13.7-36.3-32-42.5
			c-7.5-2.5-15-2.5-22.8-2.5c-9.9,0-19.8,0-29.6,0c-51.2,0-102.4,0-153.6,0c-11.3,0-22.1,2.4-31.4,9.3c-12.1,9.1-18.8,23.2-19,38.2
			c-0.1,11.5,0,23.1,0,34.7c0,55.2,0,110.3,0,165.5c0,49.7,0,99.5,0,149.2c0,15.6-0.6,30.5,9.5,43.9c9.2,12.1,23.4,18.6,38.5,18.7
			c6.5,0,13.1,0,19.6,0c53.7,0,107.3,0,161,0c4.2,0,8.5,0,12.7,0C419.1,469.5,419.1,466.5,417.2,466.5z"/>
	</g>
</g>
<g id="XMLID_13_">
	<g id="XMLID_21_">
		<path id="XMLID_25_" d="M362.5,38c-13.8,0-27.6,0-41.4,0c-14.7,0-29.5,0.6-44.2,0c-14.2-0.6-11.6-16.6-11.6-26.4
			c-0.5,0.5-1,1-1.5,1.5c32.6,0,65.2,0,97.8,0c4.6,0,9.2,0,13.9,0c-0.5-0.5-1-1-1.5-1.5C374,21.4,376.5,37.3,362.5,38
			c-1.9,0.1-1.9,3.1,0,3c8.2-0.4,14.1-6.3,14.5-14.5c0.2-4.9,0-9.9,0-14.9c0-0.8-0.7-1.5-1.5-1.5c-32.6,0-65.2,0-97.8,0
			c-4.6,0-9.2,0-13.9,0c-0.8,0-1.5,0.7-1.5,1.5c0,8-2,18.9,4.2,25.2c4.9,4.9,11.2,4.2,17.5,4.2c20.1,0,40.1,0,60.2,0
			c6.1,0,12.2,0,18.3,0C364.4,41,364.4,38,362.5,38z"/>
	</g>
</g>
<g id="XMLID_12_">
	<g id="XMLID_15_">
		<path id="XMLID_1_" d="M336.5,444c-0.8,20.2-32.8,20.1-32.8,0C303.7,423.9,335.7,423.8,336.5,444c0.1,1.9,3.1,1.9,3,0
			c-0.4-10.5-8.9-18.5-19.4-18.5c-10.2,0-19.4,8.1-19.4,18.5c0,10.4,9.2,18.5,19.4,18.5c10.5,0,19-8.1,19.4-18.5
			C339.6,442.1,336.6,442.1,336.5,444z"/>
	</g>
</g>
</svg>
