<?xml version="1.0" encoding="utf-8"?>
<!-- Generator: Adobe Illustrator 19.0.0, SVG Export Plug-In . SVG Version: 6.00 Build 0)  -->
<svg version="1.1" id="Layer_1" xmlns="http://www.w3.org/2000/svg" xmlns:xlink="http://www.w3.org/1999/xlink" x="0px" y="0px"
	 viewBox="0 0 640 480" style="enable-background:new 0 0 640 480;" xml:space="preserve">
<g id="XMLID_3_">
	<g id="XMLID_27_">
		<path id="XMLID_31_" d="M472.1,390.8c-15.6-12.7-31.3-25.4-46.9-38.1c-24.9-20.2-49.8-40.5-74.8-60.7c-5.7-4.6-11.4-9.3-17.1-13.9
			c0,0.7,0,1.4,0,2.1c9.7-12,19.4-24,29.2-35.9c-0.7,0-1.4,0-2.1,0c20.4,16.6,40.9,33.2,61.3,49.8c25,20.3,50.1,40.7,75.1,61
			c0.8,0.6,1.6,1.2,2.3,1.9c5.7,5.1,6.1,12.5,1.5,18.4c-6.8,8.6-16.1,24.5-28.8,15.2c-1.6-1.1-3.1,1.5-1.5,2.6
			c5.4,3.9,12.4,4.5,18.1,0.8c3.2-2.1,5.6-5.7,8-8.7c6.2-7.6,14.6-16,8.4-26.4c-1.9-3.1-5-5.3-7.8-7.5c-4.8-3.9-9.6-7.8-14.4-11.7
			c-31.2-25.4-62.5-50.7-93.7-76.1c-8.8-7.1-17.6-14.3-26.4-21.4c-0.6-0.5-1.6-0.7-2.1,0c-9.7,12-19.4,24-29.2,35.9
			c-0.5,0.6-0.7,1.6,0,2.1c15.6,12.7,31.3,25.4,46.9,38.1c24.9,20.2,49.8,40.5,74.8,60.7c5.7,4.6,11.4,9.3,17.1,13.9
			C471.5,394.2,473.6,392.1,472.1,390.8z"/>
	</g>
</g>
<g id="XMLID_6_">
	<g id="XMLID_17_">
		<path id="XMLID_24_" d="M375.2,188.5c-0.3,45-28.9,86.2-71.5,101.2c-42.2,14.8-90.2,1.4-118.6-33.1
			c-28.7-34.7-32.2-85.3-8.9-123.8c23.3-38.3,69.3-58.5,113.3-49.5C339,93.5,374.9,138.1,375.2,188.5c0,1.9,3,1.9,3,0
			c-0.3-45.7-28.9-87.4-71.9-103.4c-43.5-16.2-93.9-2.6-123.4,33.1c-29.5,35.8-33.4,87.8-9.3,127.4c23.9,39.3,70.9,59.9,116,51
			c44.8-8.9,80.4-46.1,87.3-91.2c0.9-5.6,1.3-11.3,1.3-17C378.2,186.6,375.2,186.6,375.2,188.5z"/>
	</g>
</g>
<g id="XMLID_5_">
	<g id="XMLID_18_">
		<path id="XMLID_26_" d="M353.4,188c-0.3,35.1-22.3,67.4-55.5,79.5c-33.3,12.1-71.6,1.8-94.2-25.5c-22.7-27.4-25.7-67.2-7.4-97.7
			c18.3-30.3,54.6-46.3,89.3-39.3C324.8,113,353.1,148.2,353.4,188c0,1.9,3,1.9,3,0c-0.3-36.5-23.2-69.9-57.7-82.4
			c-34.5-12.5-74.3-1.6-97.6,26.7c-23.4,28.5-26.4,69.9-7.1,101.4c19,31,56,47.2,91.7,40.3c40.8-7.9,70.4-44.7,70.7-86
			C356.4,186.1,353.4,186.1,353.4,188z"/>
	</g>
</g>
</svg>
