<?xml version="1.0" encoding="utf-8"?>
<!-- Generator: Adobe Illustrator 19.0.0, SVG Export Plug-In . SVG Version: 6.00 Build 0)  -->
<svg version="1.1" xmlns="http://www.w3.org/2000/svg" xmlns:xlink="http://www.w3.org/1999/xlink" x="0px" y="0px"
	 viewBox="0 0 960 560" style="enable-background:new 0 0 960 560;" xml:space="preserve">
<style type="text/css">
	.st0{fill:none;stroke:#000000;stroke-miterlimit:10;}
	.st1{fill:#FFFFFF;stroke:#000000;stroke-miterlimit:10;}
</style>
<g id="Layer_3">
	<path id="XMLID_3_" class="st0" d="M798.8,379.1l-89.1-72.3l19.5-24l89.1,72.3c6,4.9,6.9,13.7,2,19.7l-1.8,2.3
		C813.7,383,804.8,383.9,798.8,379.1z"/>
</g>
<g id="Layer_2">
	<ellipse id="XMLID_7_" class="st1" cx="432.1" cy="398.2" rx="128.2" ry="12.7"/>
	<circle id="XMLID_6_" class="st0" cx="666.8" cy="246.1" r="72.7"/>
	<circle id="XMLID_5_" class="st0" cx="667.3" cy="245.8" r="57.5"/>
</g>
<g id="Layer_1">
	<path id="XMLID_14_" class="st1" d="M185.9,458.3H70.1c-25.2,0-45.6-20.4-45.6-45.6V172.9c0-25.2,20.4-45.6,45.6-45.6h115.8
		c25.2,0,45.6,20.4,45.6,45.6v239.9C231.5,437.9,211.1,458.3,185.9,458.3z"/>
	<path id="XMLID_13_" class="st1" d="M155.2,147.6h-55c-7.2,0-13-5.8-13-13v-7.3h81v7.3C168.2,141.7,162.4,147.6,155.2,147.6z"/>
	<ellipse id="XMLID_12_" class="st1" cx="128.1" cy="440.9" rx="13" ry="12.3"/>
	<path id="XMLID_11_" class="st1" d="M558.1,346.9H308.2c-12.2,0-22.2-9.9-22.2-22.2V186.2c0-12.2,9.9-22.2,22.2-22.2h249.9
		c12.2,0,22.2,9.9,22.2,22.2v138.6C580.3,337,570.3,346.9,558.1,346.9z"/>
	<path id="XMLID_10_" class="st1" d="M486.4,396.9H384.6c-7.2,0-13-5.8-13-13v-35c0-1.1,0.9-2,2-2h123.8c1.1,0,2,0.9,2,2v35
		C499.4,391.1,493.6,396.9,486.4,396.9z"/>
	<path id="XMLID_9_" class="st1" d="M546.1,331.5H318.2c-7.9,0-14.2-6.4-14.2-14.2V195.7c0-7.9,6.4-14.2,14.2-14.2h227.8
		c7.9,0,14.2,6.4,14.2,14.2v121.5C560.3,325.1,553.9,331.5,546.1,331.5z"/>
</g>
</svg>
