<?xml version="1.0" encoding="utf-8"?>
<!-- Generator: Adobe Illustrator 19.0.0, SVG Export Plug-In . SVG Version: 6.00 Build 0)  -->
<svg version="1.1" id="Layer_1" xmlns="http://www.w3.org/2000/svg" xmlns:xlink="http://www.w3.org/1999/xlink" x="0px" y="0px"
	 viewBox="0 0 640 480" style="enable-background:new 0 0 640 480;" xml:space="preserve">
<g id="XMLID_7_">
	<g id="XMLID_34_">
		<path id="XMLID_1_" d="M524.7,419c-0.2,3.2-9.5,5.1-11.6,5.6c-9.5,2.6-19.3,4-29,5.2c-32,4.2-64.4,5.9-96.6,7
			c-41.2,1.4-82.5,1.6-123.7,0.4c-33.9-0.9-68-2.5-101.7-6.3c-11-1.2-22.1-2.7-33-5.1c-4.2-0.9-13.5-2-16.2-5.8c-2-2.8,4-4.5,6-5.2
			c8-2.8,16.5-4.2,24.8-5.5c30.3-4.7,61.2-6.4,91.8-7.7c40.9-1.8,81.8-2.1,122.8-1.3c35.5,0.7,71.1,2.1,106.5,5.6
			c12.1,1.2,24.1,2.6,36.1,4.7c6.9,1.3,14.8,2.4,21,5.8C522.7,416.9,524.7,417.8,524.7,419c0.1,1.9,3.1,1.9,3,0
			c-0.2-4.2-5.9-6-9.1-7.1c-8.9-3.1-18.4-4.5-27.6-5.8c-32.8-4.8-66-6.5-99.1-7.8c-44.2-1.7-88.4-1.8-132.6-0.5
			c-35,1-70.1,2.7-104.8,7.1c-10.4,1.3-20.9,2.8-31.1,5.5c-4,1.1-11.2,2.5-13.5,6.6c-5.2,9.2,23.4,12.9,27.3,13.6
			c30.4,5.3,61.6,7.1,92.4,8.5c43.8,2.1,87.7,2.4,131.5,1.5c37.1-0.8,74.4-2.3,111.3-6.3c11.7-1.3,23.5-2.7,35.1-5.2
			c5.8-1.2,13.3-2.4,18-6.3c1.2-1,2.2-2.1,2.2-3.8C527.8,417,524.8,417,524.7,419z"/>
	</g>
</g>
<g id="XMLID_11_">
	<g id="XMLID_28_">
		<path id="XMLID_32_" d="M536.5,334.4c-10,0-20,0-30,0c-25.1,0-50.2,0-75.2,0c-33.2,0-66.4,0-99.6,0c-33.8,0-67.7,0-101.5,0
			c-27.6,0-55.2,0-82.8,0c-14,0-27.9,0.1-41.9,0c-12.3,0-22-8.3-22.3-21.1c-0.1-5.7,0-11.4,0-17.1c0-28.1,0-56.2,0-84.3
			c0-33.1,0-66.3,0-99.4c0-16.9-0.5-33.9,0-50.8c0.4-13,10.5-20.8,22.8-20.8c5.2,0,10.3,0,15.5,0c22.2,0,44.4,0,66.5,0
			c31.8,0,63.5,0,95.3,0c34.5,0,68.9,0,103.4,0c29.7,0,59.3,0,89,0c18,0,35.9,0,53.9,0c4.1,0,8.6-0.3,12.6,0.8
			c9.2,2.7,14.7,11,14.9,20.3c0,1.9,0,3.8,0,5.8c0,23.9,0,47.7,0,71.6c0,33.7,0,67.5,0,101.2c0,22.9,0,45.7,0,68.6c0,1.5,0,3,0,4.5
			C556.8,325.1,548.1,334,536.5,334.4c-1.9,0.1-1.9,3.1,0,3c14.7-0.5,23.7-12,23.7-26c0-7.7,0-15.4,0-23.1c0-30.7,0-61.5,0-92.2
			c0-32.6,0-65.3,0-97.9c0-9.8,0-19.7,0-29.5c0-8.5-0.1-16.6-6.5-23.3c-9.6-10.2-27.1-7.4-39.8-7.4c-24.1,0-48.2,0-72.3,0
			c-33.5,0-66.9,0-100.4,0c-34.8,0-69.7,0-104.5,0c-28.7,0-57.4,0-86.1,0c-14.9,0-29.8,0-44.7,0c-11.7,0-22.4,6.4-25.1,18.5
			c-1.2,5.3-0.6,11.3-0.6,16.7c0,27,0,54,0,81c0,34.1,0,68.3,0,102.4c0,18.9-0.3,37.8,0,56.7c0.2,13.6,10.4,23.9,24,24.2
			c3.8,0.1,7.6,0,11.4,0c20.8,0,41.7,0,62.5,0c31.8,0,63.6,0,95.4,0c35.2,0,70.3,0,105.5,0c30.9,0,61.8,0,92.7,0c19,0,38,0,57.1,0
			c2.6,0,5.2,0,7.7,0C538.4,337.4,538.4,334.4,536.5,334.4z"/>
	</g>
</g>
<g id="XMLID_10_">
	<g id="XMLID_22_">
		<path id="XMLID_26_" d="M414.6,415.4c-36.7,0-73.3,0-110,0c-20.4,0-40.8,0-61.2,0c-3.4,0-6.8,0.2-10.1,0
			c-13.6-0.6-11.5-15.1-11.5-24.5c0-12.1,0-24.1,0-36.2c0-4.6,0-9.2,0-13.8c0-1.4-0.4-2.9,0.8-3.6c0.8-0.4,3.1,0,4,0
			c2.7,0,5.4,0,8.1,0c8.7,0,17.4,0,26.1,0c47,0,93.9,0,140.9,0c6.5,0,12.9,0,19.4,0c3.9,0,4.8-0.7,4.8,3.6c0,20.5,0.3,41,0,61.5
			C426,409.4,422.1,415,414.6,415.4c-1.9,0.1-1.9,3.1,0,3c7.4-0.4,13.7-5.5,14.4-13.2c0.2-2.5,0.1-5.1,0.1-7.6c0-12.2,0-24.4,0-36.6
			c0-5.7,0-11.3,0-17c0-2.1,0.4-4.6-0.1-6.6c-1-4.3-6.7-3.1-10.1-3.1c-46.1,0-92.1,0-138.2,0c-18,0-36,0-54.1,0
			c-3.5,0-7.5-0.6-7.8,4.1c-0.8,9.5,0,19.4,0,29c0,11.1,0,22.3,0,33.4c0,9.3,4.5,17.2,14.8,17.6c14.7,0.5,29.6,0,44.4,0
			c44.6,0,89.2,0,133.8,0c0.9,0,1.9,0,2.8,0C416.5,418.4,416.6,415.4,414.6,415.4z"/>
	</g>
</g>
<g id="XMLID_9_">
	<g id="XMLID_16_">
		<path id="XMLID_20_" d="M512,309.3c-29.8,0-59.5,0-89.3,0c-58.1,0-116.1,0-174.2,0c-39.5,0-79,0-118.5,0c-5.3,0-10.4,0.2-14.5-4.2
			c-4.3-4.6-3.3-11.8-3.3-17.7c0-22.9,0-45.7,0-68.6c0-29,0-57.9,0-86.9c0-16.4-0.4-32.9,0-49.4c0.4-16,16.8-13.5,27.8-13.5
			c18.7,0,37.3,0,56,0c56.8,0,113.6,0,170.4,0c44.5,0,89.1,0,133.6,0c3.7,0,7.4-0.1,11,0c8.8,0.2,13.5,6.5,13.6,14.7
			c0.2,18.4,0,36.8,0,55.2c0,50.4,0,100.8,0,151.2c0,1.9,0,3.7,0,5.6C524.6,303.2,519.7,308.9,512,309.3c-1.9,0.1-1.9,3.1,0,3
			c8.9-0.4,15.4-6.9,15.7-15.7c0-1.1,0-2.3,0-3.4c0-7.5,0-15.1,0-22.6c0-27.8,0-55.5,0-83.3c0-27.1,0-54.2,0-81.3
			c0-7.2,0-14.4,0-21.6c0-9.6-5.4-17.7-15.8-18.1c-9.4-0.4-18.8,0-28.2,0c-22.4,0-44.8,0-67.1,0c-59.6,0-119.2,0-178.8,0
			c-37.1,0-74.1-0.3-111.2,0c-9.4,0.1-17,5.9-17.4,15.7c-0.2,4.1,0,8.3,0,12.4c0,24.7,0,49.4,0,74.1c0,29.4,0,58.7,0,88.1
			c0,9.9,0,19.8,0,29.7c0,4.4-0.5,9.2,0.3,13.6c3,15.4,20.7,12.6,32.2,12.6c19.8,0,39.7,0,59.5,0c58.9,0,117.8,0,176.8,0
			c42.4,0,84.9,0,127.3,0c2.2,0,4.4,0,6.6,0C513.9,312.3,513.9,309.3,512,309.3z"/>
	</g>
</g>
</svg>
